<?xml version="1.0" encoding="UTF-8" standalone="no"?>
<!-- Created with Inkscape (http://www.inkscape.org/) -->

<svg
   width="22.032019mm"
   height="18.71517mm"
   viewBox="0 0 22.032019 18.71517"
   version="1.1"
   id="svg5"
   inkscape:version="1.2 (1:1.2.1+202207142221+cd75a1ee6d)"
   sodipodi:docname="logoProject.svg"
   xmlns:inkscape="http://www.inkscape.org/namespaces/inkscape"
   xmlns:sodipodi="http://sodipodi.sourceforge.net/DTD/sodipodi-0.dtd"
   xmlns="http://www.w3.org/2000/svg"
   xmlns:svg="http://www.w3.org/2000/svg">
  <sodipodi:namedview
     id="namedview7"
     pagecolor="#ffffff"
     bordercolor="#000000"
     borderopacity="0.25"
     inkscape:showpageshadow="2"
     inkscape:pageopacity="0.0"
     inkscape:pagecheckerboard="0"
     inkscape:deskcolor="#d1d1d1"
     inkscape:document-units="mm"
     showgrid="false"
     inkscape:zoom="1.4809109"
     inkscape:cx="409.2076"
     inkscape:cy="403.46789"
     inkscape:window-width="1920"
     inkscape:window-height="1009"
     inkscape:window-x="0"
     inkscape:window-y="0"
     inkscape:window-maximized="1"
     inkscape:current-layer="layer1" />
  <defs
     id="defs2">
    <rect
       x="179.96249"
       y="259.54953"
       width="379.68042"
       height="138.60712"
       id="rect2242" />
  </defs>
  <g
     inkscape:label="Layer 1"
     inkscape:groupmode="layer"
     id="layer1"
     transform="translate(-88.490272,-98.813028)">
    <path
       sodipodi:type="star"
       style="fill:#000000;stroke-width:2"
       id="path2569"
       inkscape:flatsided="false"
       sodipodi:sides="3"
       sodipodi:cx="80.499481"
       sodipodi:cy="85.074242"
       sodipodi:r1="4.382237"
       sodipodi:r2="2.1911187"
       sodipodi:arg1="1.730429"
       sodipodi:arg2="2.7776266"
       inkscape:rounded="0"
       inkscape:randomized="0"
       d="m 79.8029,89.400762 -1.351002,-3.546519 -1.351003,-3.546518 3.746877,0.603256 3.746876,0.603257 -2.395874,2.943262 z"
       inkscape:transform-center-x="-0.75115789"
       inkscape:transform-center-y="-0.14965795"
       transform="matrix(-0.64184695,0.422392,-0.45057284,-0.62709165,188.98106,121.22518)" />
    <path
       sodipodi:type="star"
       style="fill:#000000;stroke-width:2"
       id="path2571"
       inkscape:flatsided="false"
       sodipodi:sides="3"
       sodipodi:cx="80.499481"
       sodipodi:cy="85.074242"
       sodipodi:r1="4.382237"
       sodipodi:r2="2.1911187"
       sodipodi:arg1="1.730429"
       sodipodi:arg2="2.7776266"
       inkscape:rounded="0"
       inkscape:randomized="0"
       d="m 79.8029,89.400762 -1.351002,-3.546519 -1.351003,-3.546518 3.746877,0.603256 3.746876,0.603257 -2.395874,2.943262 z"
       inkscape:transform-center-x="0.75115789"
       inkscape:transform-center-y="-0.14965795"
       transform="matrix(0.64184695,0.422392,0.45057284,-0.62709165,18.335069,121.22536)" />
    <path
       style="fill:#000000;stroke-width:2"
       id="path2602"
       d="m 92.598959,112.3581 c -0.36607,-0.28631 -0.732137,-0.57262 -1.098207,-0.85894 0.01625,-0.12118 0.138309,-0.44676 0.04874,-0.36354 -1.99745,1.85598 -1.088622,0.73367 -0.853588,2.24126 0.0097,0.0624 -0.22725,0.0805 -0.186841,0.0319 0.461352,-0.55446 0.984354,-1.05459 1.476529,-1.58188 -1.806916,1.94946 -0.613995,-1.29917 -1.010079,-1.02752 -0.561231,0.38491 -1.057698,0.89429 -1.409948,1.47658 -0.143997,0.23804 -0.199621,0.65377 0.01185,0.83452 0.194992,0.16666 0.543475,-0.0297 0.746643,-0.18624 0.501,-0.38613 0.863235,-0.92478 1.29485,-1.38716 -0.819581,0.64055 -0.241887,-1.12504 -0.569478,-0.95295 -0.639239,0.33582 -1.192036,0.83833 -1.670503,1.37913 -0.14142,0.15984 0.151466,0.67014 0.327835,0.54997 0.539101,-0.36735 0.977217,-0.86449 1.465826,-1.29673 -0.01939,-0.10816 -0.07448,-0.71048 -0.267557,-0.79463 -0.07017,-0.0306 -0.06802,0.14213 -0.126262,0.19179 -0.505648,0.43104 -1.071666,0.79069 -1.557708,1.24372 -0.06257,0.0583 -0.111186,0.30904 -0.04724,0.25223 0.515964,-0.45838 0.959353,-0.99245 1.439027,-1.48868 -0.701361,-0.3977 0.306199,0.10357 -0.019,0.46015 -0.364003,0.39915 -0.992396,0.43807 -1.446694,0.73035 -0.06882,0.0443 -0.136482,0.21229 -0.0589,0.23831 0.123245,0.0413 0.277058,-0.0403 0.365723,-0.1354 0.382151,-0.40973 0.674777,-0.89462 1.012169,-1.34193 9.2e-5,-0.0839 -0.07297,-0.21082 2.64e-4,-0.2518 0.07041,-0.0394 0.250029,0.0821 0.195972,0.14201 -0.442198,0.48982 -0.972273,0.89504 -1.495364,1.29733 -0.06981,0.0537 0.06344,-0.1669 0.116692,-0.23705 0.03336,-0.0439 0.09515,-0.0575 0.135469,-0.0951 0.408612,-0.38179 0.806685,-0.77471 1.210029,-1.16207 0.04166,-0.0787 0.166796,-0.15744 0.124995,-0.23606 -0.03735,-0.0703 -0.09481,0.12899 -0.153162,0.18309 -0.315545,0.29254 -0.714341,0.50688 -0.966864,0.85528 -0.103624,0.14297 -0.141185,0.67038 -0.03611,0.52848 1.447255,-1.95462 1.52837,-1.8771 0.601707,-1.69564 -0.235529,0.44862 -0.510389,0.8787 -0.706586,1.34587 -0.03882,0.0924 -0.04668,0.37929 0.01519,0.3004 0.546241,-0.69645 1.096143,-1.40729 1.47891,-2.20535 0.0749,-0.15617 -0.426842,-0.003 -0.495784,0.15554 -0.05374,0.12385 0.214217,0.16435 0.321329,0.24652 -0.458933,0.43039 -0.917864,0.86078 -1.376797,1.29117 0.310557,-0.0286 0.724273,0.14708 0.931669,-0.0858 0.375566,-0.42178 0.484236,-1.03801 0.56654,-1.59674 0.02241,-0.15218 -0.191061,-0.2415 -0.276958,-0.3691 -0.01871,-0.0278 -0.01789,-0.12305 -0.03494,-0.0942 -0.365893,0.61899 -0.982594,1.17795 -1.02979,1.89544 -0.01977,0.30051 0.599702,0.0563 0.899554,0.0844 0.132728,-0.69763 0.265456,-1.39525 0.398187,-2.09287 -0.105987,0.003 -0.275833,-0.0893 -0.31796,0.008 -0.230637,0.53266 -0.34589,1.11454 -0.417497,1.69055 -0.0085,0.0685 0.148979,0.0386 0.207169,0.001 0.17566,-0.11225 0.3585,-0.24284 0.457666,-0.42621 0.15884,-0.2937 0.194119,-0.63897 0.291179,-0.95846 0.05926,-0.0678 0.248068,-0.14722 0.177765,-0.20354 -0.07787,-0.0624 -0.238061,0.0353 -0.269665,0.12992 -0.151649,0.45413 -0.17167,0.94214 -0.246261,1.41507 -0.02815,0.17847 -0.0076,-0.39158 0.106886,-0.53139 0.746622,-0.91199 1.121029,0.68924 -0.04843,-1.45787 -0.0113,-0.13436 -0.03522,-0.5379 -0.0339,-0.40308 0.0048,0.48678 -0.03635,0.97965 0.04423,1.45973 0.01119,0.0668 0.130712,-0.0408 0.187809,-0.0772 0.171808,-0.10938 0.506265,-0.15434 0.495345,-0.35771 -0.07654,-1.42585 -0.247676,-1.30552 -0.90988,-1.24203 0.933661,-0.17649 0.383211,-0.21037 0.606345,1.54 0.01617,0.1269 -0.0927,-0.26055 -0.04868,-0.38066 0.03615,-0.0986 0.218075,-0.0861 0.255704,-0.1842 0.154033,-0.4015 0.05404,-0.90046 0.296643,-1.25553 0.176205,-0.2579 -0.05125,0.62258 -0.07687,0.93387 -0.06384,-0.044 -0.166939,-0.0586 -0.191524,-0.13216 -0.06852,-0.20505 0.295722,-0.21547 0.325625,-0.29874 0.07979,-0.22217 0.06931,-0.46976 0.06002,-0.70564 -0.007,-0.17801 -0.1031,-0.7014 -0.1084,-0.52333 -0.01693,0.56866 0.04882,1.13678 0.07323,1.70518 0.430355,-0.93667 -0.156623,0.3983 0.231822,-0.70989 0.08949,-0.2553 0.312875,-0.47813 0.313336,-0.74865 2.64e-4,-0.20709 -0.228143,-0.72745 -0.31115,-0.53773 -0.03787,1.43887 -0.297143,1.68604 0.160417,1.0626 0.107643,-0.0402 0.967232,-0.36746 0.931164,-0.48222 -0.02943,-0.0936 -0.187566,-0.0578 -0.28117,-0.0873 -0.0323,-0.0102 -0.127855,-0.0446 -0.09654,-0.0317 0.07071,0.0291 0.143248,0.0536 0.214871,0.0804 0.0019,-0.0652 -0.01561,-0.13409 0.0058,-0.19573 0.04377,-0.12559 0.108148,-0.24505 0.185468,-0.35327 0.0607,-0.085 0.200403,-0.32112 0.223647,-0.21932 0.02991,0.13097 -0.128752,0.23584 -0.192921,0.35388 -0.01162,0.0213 -0.01728,0.0815 -0.0344,0.0642 -0.03861,-0.0389 -0.03697,-0.10313 -0.05545,-0.1547 0.105772,0.0461 0.275785,0.24587 0.31732,0.13824 0.05584,-0.14472 -0.306779,-0.29338 -0.210521,-0.41502 0.10727,-0.13556 0.347964,-0.005 0.517908,0.0266 0.06023,0.0112 -0.177064,-0.0249 -0.180186,0.0363 -0.0011,0.0222 0.396433,0.48707 0.02611,0.0494 0.64964,0.0244 0.102703,-0.19297 0.255765,-0.59987 0.03023,-0.0803 0.191976,-0.0538 0.257548,0.002 0.07896,0.0667 0.141184,0.20356 0.09404,0.29557 -0.09359,0.18264 -0.304621,0.27508 -0.456933,0.41262 -0.215903,-0.14189 -0.816436,-0.23002 -0.647713,-0.42568 0.273208,-0.31682 0.849598,-0.0755 1.230002,-0.24957 0.01463,-0.007 -0.194082,-0.65214 -0.195683,-0.40776 -0.0016,0.2443 -0.135371,0.71269 0.108633,0.72482 0.239503,0.0119 2.64e-4,-0.47959 5.29e-4,-0.71939 0.156004,-0.0464 0.351205,-0.0258 0.468011,-0.13919 0.100579,-0.0976 0.120608,-0.27095 0.09702,-0.40909 -0.01389,-0.0815 -0.275254,-0.1443 -0.193342,-0.15509 0.0236,-0.003 0.721246,0.36621 0.692473,0.30878 -0.09845,-0.19648 -0.344213,-0.27333 -0.516319,-0.40999 0.122214,-0.003 0.246256,0.0134 0.366641,-0.008 0.926494,-0.16327 0.398169,-0.0601 0.122791,-0.48198 -0.03732,-0.0572 0.251539,0.092 0.199062,0.0483 -0.100338,-0.0835 -0.285457,-0.0614 -0.350653,-0.17446 -0.04052,-0.0703 0.16209,-0.008 0.243134,-0.0121 -0.0962,-0.0263 -0.193614,-0.10938 -0.288602,-0.079 -1.903566,0.60948 -0.176946,0.4795 0.275894,0.22151 0.677132,-0.38578 0.153726,-0.59118 0.277402,-1.03522 0.02013,-0.0723 0.131469,-0.0723 0.197205,-0.10844 -0.07244,0.13726 -0.155091,0.25045 -0.139192,0.41961 0.0044,0.0472 0.02873,-0.0915 0.05431,-0.1314 0.148039,-0.231 0.400224,-0.4125 0.465103,-0.67908 0.0032,-0.0132 -0.402275,-0.85262 -0.403736,-0.85566 1.101061,2.42126 0.04408,0.7632 0.03305,0.5724 -0.0096,-0.16625 0.232346,-0.30769 0.180353,-0.4659 -0.08872,-0.26995 -0.268528,-0.60184 -0.54805,-0.65294 -0.223451,-0.0408 0.196959,0.40965 0.306314,0.60875 0.153871,0.28015 0.322,0.55224 0.483002,0.82836 -0.147635,-0.0216 -0.297334,-0.0319 -0.442902,-0.0647 -0.104394,-0.0235 0.326623,0.1435 0.318873,0.0368 -0.04507,-0.62074 -0.1915,-1.24549 -0.447818,-1.81263 -0.07454,-0.16495 -0.198871,0.35757 -0.133498,0.52636 0.462285,1.19359 1.042001,0.36988 0.217072,1.16327 -0.516813,-0.24487 0.02191,0.0278 -0.03037,-1.57395 -0.0016,-0.0447 -0.04991,0.0755 -0.06347,0.11807 -0.04514,0.1418 -0.09703,0.28414 -0.111715,0.43222 -0.08485,0.8556 0.10623,0.39171 -0.03229,0.70324 0.177467,-0.42501 0.354931,-0.85002 0.532397,-1.27504 0.0088,-0.0367 0.05958,-0.12827 0.0265,-0.11009 -0.12985,0.0714 -0.273103,0.15259 -0.34226,0.28363 -0.132284,0.25067 -0.220181,1.09909 -0.238191,0.81624 -0.157567,-2.474318 0.465566,-0.75233 0.07284,-1.74089 -0.111222,0.0136 -0.414906,-0.0364 -0.333674,0.0408 0.12718,0.12084 0.38753,0.25231 0.510657,0.12735 0.108214,-0.10983 -0.297704,-0.12685 -0.388006,-0.25183 -0.08544,-0.118243 0.04291,-0.445974 -0.10155,-0.425697 -2.456693,0.344795 -2.463631,0.237424 -1.870477,0.884997 4.941385,-0.640715 1.74757,0.0339 1.417415,-0.384 -0.100523,-0.12725 0.133758,-0.494506 -0.02817,-0.485685 -0.544931,0.02969 -0.996881,0.476945 -1.534486,0.570815 -0.11063,0.0193 0.0069,-0.262568 0.102855,-0.320821 0.272759,-0.165497 0.607187,-0.19613 0.91078,-0.294195 0.03474,-0.01228 0.06954,-0.02437 0.104209,-0.03684 0.0263,-0.0095 -0.0662,0.05262 -0.07913,0.02782 -0.128908,-0.247224 -0.04293,-0.852376 -0.31119,-0.776396 -0.699881,0.198234 -1.217025,0.81937 -1.714437,1.350132 -0.08611,0.0919 -0.01468,0.34863 0.110602,0.36125 0.119186,0.012 0.08188,-0.22516 0.122811,-0.33774 0.495581,-0.15066 1.058087,-0.16119 1.486742,-0.451969 0.132379,-0.0898 -0.211156,-0.287162 -0.370063,-0.30554 -0.372565,-0.04309 -0.746609,0.07585 -1.117195,0.13354 -0.253788,0.0395 -0.516937,0.05942 -0.754205,0.157758 -0.04405,0.01826 0.006,0.139369 0.05324,0.13277 0.446098,-0.06234 0.874662,-0.215706 1.311992,-0.323561 0.09863,-0.548569 0.08287,-0.16455 -1.125318,0.01791 -0.252654,0.03816 -0.55608,-0.04805 -0.759026,0.107207 -0.103749,0.07937 0.01085,0.378185 0.14088,0.365685 1.322295,-0.127066 0.630668,-0.970988 1.183261,-0.02991 -0.01278,-0.107074 0.06608,-0.348239 -0.03832,-0.321228 -0.647113,0.167434 -1.243655,0.496628 -1.836068,0.806198 -0.04488,0.0234 0.07822,0.11223 0.123164,0.0889 0.08688,-0.0451 0.08256,-0.19383 0.168682,-0.24033 0.337058,-0.18201 1.118473,-0.0473 1.066948,-0.426877 -0.05302,-0.390631 -0.771795,-0.161089 -1.157695,-0.241636 -0.264139,0.116816 -0.603192,0.132252 -0.792422,0.350443 -0.220596,0.25436 -0.390329,0.61965 -0.33723,0.95213 0.04914,0.3077 0.308891,0.81602 0.603325,0.71403 0.557204,-0.19301 1.075092,-0.74572 1.168863,-1.3279 0.0227,-0.14086 -1.488962,0.44264 -1.632316,0.49572 0.01114,0.92295 -0.173878,1.12612 1.663222,0.70669 0.244448,-0.0558 0.662553,-0.52635 0.429095,-0.61782 -0.78945,-0.30932 -1.694013,-0.3138 -2.535197,-0.20739 -0.176983,0.0224 -0.185434,0.42665 -0.04257,0.53349 0.604245,0.45188 1.36483,0.64379 2.047245,0.96569 0.542896,-0.98449 0.472972,-0.60959 -2.006668,-1.47444 -0.12387,-0.0432 -0.184214,0.1961 -0.230915,0.3187 -0.05563,0.14605 -0.181137,0.35699 -0.06725,0.46402 0.583316,0.54819 1.260142,1.01582 1.990513,1.34342 0.156195,0.0701 -0.07503,-0.33405 -0.112556,-0.50107 -0.541253,-0.30127 -1.082508,-0.60254 -1.623761,-0.9038 -8.5e-5,0.071 0.04634,0.15939 -2.54e-4,0.21293 -0.102643,0.11796 -0.535517,0.16946 -0.399283,0.2462 0.643046,0.36223 1.401411,0.46395 2.097159,0.71024 0.05275,0.0187 -0.116554,1.1e-4 -0.165745,-0.0266 -0.613746,-0.33267 -1.209379,-0.69771 -1.814068,-1.04656 -0.02408,0.0635 -0.129697,0.15427 -0.07222,0.19036 0.63069,0.39602 1.324115,0.6821 1.990656,1.01426 0.04838,0.0241 0.201576,0.0776 0.152945,0.054 -0.61242,-0.29737 -1.200457,-0.65693 -1.845164,-0.87565 -0.07483,-0.0254 -0.06375,0.14467 -0.09249,0.21828 -0.02789,0.0714 0.05994,-0.14112 0.08991,-0.21167 0.686679,0.26428 1.408666,0.45066 2.060033,0.79285 0.155144,0.0815 -0.351745,0.0354 -0.525584,0.0132 -0.556218,-0.071 -1.099799,-0.2263 -1.656676,-0.29196 -0.04942,-0.006 -0.15495,0.0423 -0.124819,0.0819 0.06729,0.0885 0.189886,0.12689 0.299148,0.14724 0.512564,0.0955 1.034412,0.13164 1.55162,0.19746 1.070597,0.19759 0.441185,0.0914 -1.837806,-0.538 -0.06737,0.16101 2.209659,1.11373 2.277027,0.95272 v 0 c -2.722578,-1.18579 -3.186414,-1.86121 -2.324629,-0.79885 0.754608,0.23991 1.487279,0.56492 2.263823,0.71974 0.111503,0.0222 -0.18588,-0.18956 -0.161261,-0.30056 0.03642,-0.16417 0.455845,-0.30153 0.315283,-0.39383 -0.618765,-0.40634 -1.35581,-0.63391 -2.08389,-0.76761 -0.633786,-0.11638 -1.34221,4.00739 1.349248,1.38441 0.102346,-0.0594 0.229219,-0.089 0.307041,-0.17816 0.458192,-0.52481 -1.131279,-1.44641 -1.463411,-1.67524 -0.08026,-0.0553 -0.188748,0.19703 -0.120369,0.26648 0.532897,0.54129 1.158438,0.98646 1.781545,1.42086 0.165984,0.11572 -0.266192,-0.3048 -0.399285,-0.4572 -0.332719,-0.4335 -0.597106,-0.9293 -0.998151,-1.30049 -0.08671,-0.0803 -0.44046,-0.0246 -0.350605,0.0521 0.471821,0.40286 1.049584,0.66185 1.574374,0.99277 7.94e-4,0.079 -0.02019,0.16112 0.0021,0.2369 0.01474,0.0502 0.01458,-0.10365 0.02185,-0.15548 -0.555323,-0.47408 -1.110646,-0.94816 -1.665967,-1.42224 0.0682,0.0599 0.135215,0.12118 0.204613,0.17969 0.475554,0.40094 1.002969,0.74654 1.430192,1.19863 0.04979,0.0527 -0.241515,0.10726 -0.173205,0.13153 0.08213,0.0292 0.290746,-0.0392 0.237914,-0.10854 -1.105149,-1.45023 -1.864276,-0.99298 -1.144752,-1.36688 0.635521,0.36621 1.287965,0.70451 1.906564,1.09862 0.104497,0.0666 -0.238411,-0.0682 -0.355023,-0.11011 -0.507487,-0.18222 -1.040445,-0.30947 -1.516859,-0.56201 -0.174183,-0.0923 -0.583917,-0.45714 -0.387025,-0.44721 4.158734,0.20955 2.622974,0.47157 1.64869,0.70509 6.1e-5,0.11299 0.100113,0.28624 1.83e-4,0.339 -0.245499,0.12961 -0.963573,0.33935 -0.827111,0.0976 0.192302,-0.3407 1.889273,-2.36576 1.583594,-0.84869 -0.03261,0.16187 -0.335089,0.57115 -0.437726,0.71831 -1.776429,-0.58089 0.205607,0.1541 1.036516,-0.26721 0.227793,-0.11551 -0.31862,-0.4571 -0.286806,-0.71052 0.01828,-0.1456 0.544724,-0.20503 0.399283,-0.18546 -1.624248,0.21845 -1.253149,0.79148 -1.568308,0.25423 0.896303,0.95861 0.02865,0.31211 1.75273,0.34381 0.155181,0.003 0.528013,0.0934 0.418738,0.20362 -0.131818,0.13296 -2.23874,-0.49794 -1.356366,-0.0741 0.465889,-0.20285 0.916811,-0.44429 1.397664,-0.60855 0.09708,-0.0332 0.352391,-0.0654 0.306626,0.0264 -0.0555,0.11135 -0.238699,0.0819 -0.363016,0.0868 -0.311555,0.0123 -0.632172,0.0398 -0.93471,-0.0356 -0.06194,-0.0155 -0.01632,-0.16806 0.04488,-0.18618 0.444651,-0.13159 0.914331,-0.15532 1.3715,-0.23299 0.05298,-0.0755 0.07381,-0.19096 0.158924,-0.22646 0.07405,-0.0309 0.297641,0.0168 0.23223,0.0633 -0.368768,0.26197 -0.75969,0.53997 -1.203631,0.62678 -0.130332,0.0255 -0.197247,-0.22537 -0.17747,-0.35668 0.04327,-0.2873 0.828043,1.48603 0.32688,0.808 0.525044,-0.0117 1.079672,0.13901 1.575133,-0.0351 0.24116,-0.0848 0.637236,-0.5758 0.394962,-0.65735 -0.550338,-0.18522 -1.151313,0.26147 -1.729536,0.20817 -0.123775,-0.0114 -0.09286,-0.2598 -0.03734,-0.37101 0.03021,-0.0605 0.107151,0.0826 0.160727,0.12386 0.545864,0.084 1.091731,0.16808 1.637596,0.25212 0.1432,-0.63651 0.02912,0.0162 -1.512623,0.34026 -0.05805,0.0122 -0.140277,-0.0341 -0.152212,-0.0922 -0.01196,-0.0582 0.0461,-0.16081 0.103444,-0.14521 0.218646,0.0595 0.468963,0.14404 0.591846,0.33442 0.0595,0.0922 -0.143531,0.16598 -0.215294,0.24897 0.391147,-0.23712 1.48971,-0.79205 0.462159,-1.56132 -0.331619,-0.24826 -0.313413,0.76799 -0.437206,1.16332 -0.03428,0.10946 -0.01873,0.22876 -0.0343,0.3424 -0.05847,0.42703 -0.904828,1.64418 0.650351,-1.06241 -0.115904,-0.0376 -0.292722,-0.22167 -0.347713,-0.11292 -0.140761,0.27837 -0.052,0.62183 -0.06717,0.9334 -0.0098,0.20044 0.0063,0.40179 -0.0076,0.60198 -0.0092,0.13223 -0.0939,0.52138 -0.06152,0.39285 0.418084,-1.65986 0.826778,-1.86006 0.241189,-1.5165 -0.504698,0.50402 -0.889762,0.63928 -0.370604,1.57788 0.0877,0.15855 0.50134,0.25644 0.537797,0.079 0.08759,-0.42643 -0.305925,-0.83766 -0.292579,-1.27278 0.0026,-0.0846 1.035299,0.60577 -0.145764,0.20782 -0.235374,0.62252 -0.797409,1.2556 0.39153,1.50159 0.05802,0.012 -0.767956,-0.70895 -0.554371,-0.96149 0.232651,-0.27509 1.896454,0.40069 0.242382,1.05329 -0.237921,-0.44658 -0.384534,-0.71465 0.122381,-1.15396 0.05471,-0.0474 0.07417,0.14787 0.04252,0.21298 -0.06503,0.13376 -0.199334,0.22098 -0.304575,0.32607 -0.135157,0.13498 -0.277516,0.26254 -0.416277,0.39381 0.09799,0.0797 0.183473,0.17781 0.293955,0.23896 0.02987,0.0165 -0.0513,-0.0657 -0.03566,-0.096 0.06074,-0.11786 0.127506,-0.2533 0.246171,-0.31245 0.27895,-0.13905 1.205317,-0.31417 0.898692,-0.25824 -0.460806,0.0841 -0.919046,0.19278 -1.362755,0.34288 -0.111678,0.0378 -0.187984,0.14233 -0.281977,0.2135 -0.0021,0.084 -0.0055,0.16805 -0.0061,0.25211 -7.94e-4,0.0989 0.03782,0.20453 0.0019,0.29664 -0.0833,0.21336 -0.285753,0.23236 -0.297688,0.15449 -0.01394,-0.0909 0.444008,-0.14522 0.245851,0.12543 -0.08695,0.0499 -0.595313,0.33969 -0.608722,0.35765 -0.09027,0.12094 -0.170235,0.54692 -0.05507,0.44939 0.125833,-0.10657 0.233746,-0.29303 0.323496,-0.43443 0.492061,-0.50015 -0.564002,0.15839 -0.513205,0.36675 0.02013,0.0826 0.05246,0.22723 0.136655,0.21538 0.327223,-0.0461 0.857422,-0.0403 0.921946,-0.36438 0.05426,-0.27253 -0.540668,-0.12858 -0.811001,-0.19286 -0.124388,0.19263 -0.256781,0.38032 -0.373163,0.57789 -0.05855,0.0994 -0.08376,0.2176 -0.150762,0.31151 -0.03903,0.0547 -0.193725,0.18119 -0.15948,0.12336 0.004,-0.007 0.338738,-0.27582 0.07424,-0.20023 -0.132037,0.84846 0.17793,-0.77024 -0.338963,0.27883 -0.0483,0.098 0.220713,0.32812 0.113369,0.30762 -0.712467,-0.13608 -0.0718,-0.62411 0.03852,-0.22387 -0.03564,0.0414 -0.0543,0.10951 -0.106915,0.12408 -0.155975,0.0432 -0.398124,-0.0976 -0.483933,0.0397 -0.114668,0.18339 0.127145,0.44268 0.05487,0.64654 -0.03752,0.10583 -0.25196,-0.19269 -0.184065,-0.28212 0.309634,-0.40787 0.753504,-0.0305 0.443685,-0.26399 -0.39434,0.17311 0.08943,-0.0837 -0.298,0.36901 -0.05453,0.0637 -0.150662,0.0742 -0.222332,0.1178 -0.06307,0.0383 0.14484,0.16102 0.08513,0.2044 -0.08277,0.0601 -0.203859,-0.0176 -0.30579,-0.0264 0.05172,0.56204 0.102976,0.87916 -0.172116,1.56804 -0.05429,0.13594 -0.130387,-0.26638 -0.156025,-0.4105 -0.04205,-0.23634 -0.02992,-0.47917 -0.04488,-0.71876 0.03507,-0.0403 0.107109,-0.0675 0.105206,-0.12095 -0.0016,-0.0427 -0.0745,-0.0419 -0.111757,-0.0629 -0.0889,0.59126 -0.137036,1.1901 -0.26669,1.77378 -0.03639,0.16384 1.78e-4,-0.33616 -0.01553,-0.50326 -0.02148,-0.22859 -0.167968,-0.46408 -0.09592,-0.68209 0.0329,-0.0996 0.360889,0.12444 0.265689,0.16838 -1.700377,0.78474 0.634854,-1.0771 -0.999609,0.35891 0.04906,0.4203 -0.231413,1.07187 0.147174,1.26089 0.318548,0.15905 0.236043,-0.67235 0.375304,-1.00003 0.0209,-0.0491 0.134527,-0.081 0.102156,-0.12343 -0.05668,-0.0744 -0.242703,-0.18149 -0.265415,-0.0908 -0.133765,0.53424 -0.139194,1.09698 -0.12437,1.64751 0.0058,0.21682 0.123685,0.41578 0.185529,0.62368 0.209097,-0.9424 0.165756,-0.3071 -0.591728,-1.81638 0.0039,-0.24434 0.49797,-0.0515 0.714259,-0.16519 0.07117,-0.0374 -0.210632,-0.17299 -0.222406,-0.0935 -0.282049,1.9058 0.587007,1.63797 -0.268605,1.82034 -0.0066,-0.43389 -0.09676,-0.8746 -0.01992,-1.30168 0.02582,-0.1435 0.231635,-0.18574 0.309703,-0.30888 0.02045,-0.0323 -0.03282,-0.13931 -0.04783,-0.10417 -0.567997,1.32994 -0.06348,1.0507 -0.908241,1.53878 0.186111,-0.27588 0.318821,-0.59658 0.558329,-0.82762 0.10128,-0.0977 0.350949,0.023 0.408819,-0.10531 0.05612,-0.1244 -0.135361,-0.47721 -0.200197,-0.35712 -0.296021,0.54824 -0.425675,1.17415 -0.568426,1.78062 -0.01175,0.05 0.106765,0.12849 0.129847,0.0827 0.209283,-0.4155 0.32485,-0.87191 0.487275,-1.30787 1.217869,0.18503 0.21675,-0.11394 -0.662318,1.62779 -0.091,0.1803 0.336045,-0.22827 0.521174,-0.30899 0.06089,-0.0266 -0.09288,0.095 -0.139325,0.14249 0.148765,-0.32028 0.29753,-0.64056 0.446294,-0.96084 0.125087,-0.13725 0.36199,-0.0831 0.542983,-0.12465 -0.504155,0.3252 -1.091387,0.54827 -1.512464,0.97561 -0.144812,0.14697 0.103063,0.71405 0.247947,0.56715 0.501509,-0.5085 0.94298,-1.07494 1.369488,-1.6478 0.0292,-0.0392 -0.11389,-0.0311 -0.146621,0.005 -0.494321,0.54879 -0.935316,1.14336 -1.402975,1.71504 0.104005,0.0236 0.22968,0.13853 0.312016,0.0708 0.452897,-0.37283 0.80669,-0.85283 1.183838,-1.30214 0.06685,-0.0796 0.226772,-0.33817 0.142227,-0.27764 -0.691862,0.49542 -1.430539,0.95817 -1.989117,1.60013 -0.196768,0.22613 0.9983,0.31073 0.870694,0.22495 0.438044,-0.3225 0.89176,-0.62473 1.31413,-0.9675 0.02143,-0.0174 0.003,-0.0758 -0.02442,-0.0792 -0.755581,-0.0933 -1.718159,0.47593 -2.15378,0.88181 -0.206396,0.19231 0.74903,0.33177 0.579337,0.61693 0.561538,-0.45266 1.088591,-0.9518 1.684613,-1.35798 0.04846,-0.033 0.132032,0.15763 0.07343,0.15989 -1.321022,0.0509 1.648145,-2.55024 -2.283889,0.283 -0.263927,0.19017 0.197162,1.04188 0.314762,1.28682 0.787916,-0.409 1.615429,-0.74939 2.36375,-1.22699 0.135104,-0.0862 -0.330599,-0.0327 -0.480187,0.0248 -0.631685,0.24301 -1.247187,0.5332 -1.836348,0.86632 -0.04345,0.0245 0.05962,0.0815 0.07763,0.12806 0.251058,0.64895 -0.0547,0.24898 0.552694,0.78974 0.600204,-0.37197 1.261713,-0.65962 1.800619,-1.11589 0.08311,-0.0704 -0.04749,-0.22679 -0.12732,-0.30084 -0.138782,-0.12874 -0.319469,-0.34619 -0.495708,-0.2771 -0.657841,0.2579 -1.278003,0.65894 -1.77056,1.16555 -0.292414,0.30075 1.145268,0.97997 0.902129,0.87737 0.528931,-0.22888 1.113959,-0.35713 1.586796,-0.68665 0.253222,-0.17647 0.596678,-0.47784 0.508699,-0.77368 -0.08582,-0.2886 -0.54174,-0.38597 -0.838592,-0.33563 -0.635741,0.10778 -1.261467,0.38299 -1.771052,0.77809 -0.133998,0.1039 0.07428,0.33212 0.134954,0.49045 0.130817,0.34137 0.292174,0.67025 0.438263,1.00538 0.894922,-0.20914 1.846199,-0.25136 2.68477,-0.62743 0.196498,-0.0881 0.268827,-0.47158 0.126828,-0.63348 -0.261459,-0.29812 -0.697103,-0.48208 -1.093401,-0.4686 -0.800272,0.0272 -1.610771,0.23282 -2.329879,0.58504 -0.553445,0.27108 2.949916,1.77865 1.098153,1.48733 0.09558,0.15407 2.274467,-1.19769 2.178884,-1.35176 z" />
    <path
       id="text2240"
       style="font-style:normal;font-variant:normal;font-weight:bold;font-stretch:normal;font-size:85.3333px;font-family:Ubuntu;-inkscape-font-specification:'Ubuntu, Bold';font-variant-ligatures:normal;font-variant-caps:normal;font-variant-numeric:normal;font-variant-east-asian:normal;white-space:pre;shape-inside:url(#rect2242);fill:#000fb0;fill-opacity:1;stroke-width:2"
       inkscape:label="text2240"
       d="m 98.71423,101.88161 c -1.414868,1.97179 -2.912827,4.25253 -4.493266,6.84144 -1.580443,2.57386 -3.288945,5.5088 -5.12527,8.80515 h 3.860747 c 0.270934,-0.57197 0.594709,-1.18928 0.971,-1.85157 0.376296,-0.66228 0.722614,-1.27908 1.038696,-1.85104 h 4.967136 v 3.70261 h 10.589017 v -2.95796 h -7.17993 v -3.77031 h 5.87044 v -2.88975 h -5.87044 v -3.07061 h 6.66058 v -2.95796 z m 1.219043,3.40961 v 5.73454 h -3.545001 c 0.255884,-0.42146 0.534572,-0.89533 0.83561,-1.42214 0.316087,-0.52681 0.632174,-1.04628 0.948261,-1.55805 0.331142,-0.5268 0.647227,-1.0309 0.948264,-1.51256 0.301035,-0.48166 0.572036,-0.8956 0.812866,-1.24179 z" />
  </g>
</svg>
