<?xml version="1.0" encoding="UTF-8" standalone="no"?>
<!DOCTYPE svg PUBLIC "-//W3C//DTD SVG 20010904//EN"
              "http://www.w3.org/TR/2001/REC-SVG-20010904/DTD/svg10.dtd">

<svg xmlns="http://www.w3.org/2000/svg"
     width="5.68in" height="5.5in"
     viewBox="0 0 1704 1650">
  <path id="Selection copy"
        fill="none" stroke="black" stroke-width="1"
        d="M 750.00,58.00
           C 750.77,53.04 751.71,50.54 753.77,46.00
             754.72,43.91 756.43,39.79 757.70,38.10
             758.94,36.44 760.23,35.41 762.02,34.36
             776.07,26.13 783.34,44.15 788.21,48.39
             793.59,53.09 799.06,54.32 805.97,63.09
             810.91,69.36 810.15,73.31 812.56,75.31
             815.12,77.43 817.86,75.15 824.00,76.76
             832.29,78.95 840.54,86.04 843.78,94.00
             845.60,98.48 844.60,101.59 845.32,106.00
             845.32,106.00 849.42,123.00 849.42,123.00
             849.42,123.00 863.03,178.00 863.03,178.00
             863.03,178.00 866.90,188.00 866.90,188.00
             866.90,188.00 869.98,200.00 869.98,200.00
             869.98,200.00 884.14,226.00 884.14,226.00
             884.14,226.00 908.69,271.00 908.69,271.00
             908.69,271.00 991.69,423.00 991.69,423.00
             991.69,423.00 1032.69,498.00 1032.69,498.00
             1032.69,498.00 1045.70,522.00 1045.70,522.00
             1048.31,526.75 1051.25,533.24 1055.00,537.00
             1052.60,527.14 1054.62,526.48 1055.89,518.00
             1056.71,512.58 1052.27,509.34 1052.01,498.00
             1051.62,480.56 1058.94,477.21 1062.58,465.00
             1062.58,465.00 1069.44,442.04 1069.44,442.04
             1070.43,440.27 1071.43,439.14 1073.10,437.99
             1082.50,431.52 1094.61,434.87 1105.00,435.00
             1118.21,435.15 1122.88,435.31 1135.00,428.69
             1148.80,421.16 1157.67,409.28 1174.00,404.26
             1197.74,397.40 1227.51,402.41 1252.00,404.26
             1252.00,404.26 1262.00,405.00 1262.00,405.00
             1262.00,384.46 1264.05,377.57 1267.58,358.00
             1267.58,358.00 1270.46,339.00 1270.46,339.00
             1271.35,334.35 1273.61,325.12 1279.00,323.96
             1280.67,323.60 1282.05,324.16 1283.15,325.45
             1284.73,327.30 1284.92,330.58 1285.22,332.91
             1285.22,332.91 1286.75,353.00 1286.75,353.00
             1286.75,353.00 1291.48,377.00 1291.48,377.00
             1291.48,377.00 1295.58,392.00 1295.58,392.00
             1296.36,396.29 1297.37,408.96 1299.01,411.72
             1300.61,414.41 1312.08,424.90 1315.00,427.00
             1317.72,420.98 1321.52,417.78 1325.83,413.00
             1335.48,402.30 1346.58,392.73 1359.00,385.35
             1364.03,382.36 1374.43,378.67 1379.73,382.74
             1382.05,384.52 1383.37,388.30 1384.30,391.00
             1389.80,406.88 1386.14,429.84 1382.58,446.00
             1380.56,455.11 1378.01,460.45 1378.00,470.00
             1378.00,470.00 1378.00,481.00 1378.00,481.00
             1378.00,481.00 1378.91,491.00 1378.91,491.00
             1378.91,491.00 1380.96,515.00 1380.96,515.00
             1380.96,515.00 1380.96,523.00 1380.96,523.00
             1380.96,523.00 1382.00,534.00 1382.00,534.00
             1382.00,534.00 1382.95,547.00 1382.95,547.00
             1382.95,547.00 1382.95,565.00 1382.95,565.00
             1382.95,565.00 1382.17,574.00 1382.17,574.00
             1382.17,574.00 1380.39,591.00 1380.39,591.00
             1377.57,606.52 1366.10,633.94 1359.58,649.00
             1359.58,649.00 1347.96,675.00 1347.96,675.00
             1347.96,675.00 1343.87,701.00 1343.87,701.00
             1343.87,701.00 1337.85,745.00 1337.85,745.00
             1337.85,745.00 1333.28,776.00 1333.28,776.00
             1333.28,776.00 1328.58,812.00 1328.58,812.00
             1328.58,812.00 1326.05,829.00 1326.05,829.00
             1325.62,831.79 1324.68,835.08 1326.05,837.72
             1326.05,837.72 1329.41,842.09 1329.41,842.09
             1329.41,842.09 1334.47,850.00 1334.47,850.00
             1334.47,850.00 1340.72,857.00 1340.72,857.00
             1340.72,857.00 1370.91,890.00 1370.91,890.00
             1370.91,890.00 1393.83,915.00 1393.83,915.00
             1393.83,915.00 1410.04,932.91 1410.04,932.91
             1410.04,932.91 1423.00,944.09 1423.00,944.09
             1423.00,944.09 1436.96,957.83 1436.96,957.83
             1436.96,957.83 1477.92,996.30 1477.92,996.30
             1492.31,1011.14 1506.78,1026.55 1519.35,1043.00
             1519.35,1043.00 1551.28,1088.00 1551.28,1088.00
             1551.28,1088.00 1557.92,1098.00 1557.92,1098.00
             1557.92,1098.00 1577.98,1124.00 1577.98,1124.00
             1599.45,1155.16 1618.44,1188.29 1637.42,1221.00
             1637.42,1221.00 1668.10,1274.00 1668.10,1274.00
             1668.10,1274.00 1681.34,1314.00 1681.34,1314.00
             1681.34,1314.00 1695.00,1362.00 1695.00,1362.00
             1695.00,1362.00 1701.17,1410.00 1701.17,1410.00
             1701.17,1410.00 1703.00,1431.00 1703.00,1431.00
             1703.00,1431.00 1704.00,1449.00 1704.00,1449.00
             1704.00,1449.00 1703.09,1479.00 1703.09,1479.00
             1703.09,1479.00 1701.47,1495.00 1701.47,1495.00
             1701.47,1495.00 1689.43,1522.00 1689.43,1522.00
             1679.35,1545.55 1674.45,1560.13 1660.99,1583.00
             1651.51,1599.10 1634.93,1625.05 1618.00,1633.18
             1610.69,1636.69 1599.95,1637.21 1592.00,1638.61
             1573.31,1641.92 1558.08,1643.97 1539.00,1644.00
             1539.00,1644.00 1522.00,1645.00 1522.00,1645.00
             1522.00,1645.00 1397.00,1645.00 1397.00,1645.00
             1397.00,1645.00 1320.00,1645.00 1320.00,1645.00
             1320.00,1645.00 1280.00,1648.00 1280.00,1648.00
             1269.32,1648.05 1262.73,1648.38 1252.00,1646.57
             1241.82,1644.84 1241.82,1642.58 1237.00,1641.21
             1237.00,1641.21 1220.00,1641.21 1220.00,1641.21
             1207.31,1640.84 1197.19,1631.72 1196.00,1619.04
             1196.00,1619.04 1180.00,1619.04 1180.00,1619.04
             1180.00,1619.04 1169.00,1619.96 1169.00,1619.96
             1169.00,1619.96 1160.00,1619.04 1160.00,1619.04
             1148.29,1618.59 1130.86,1627.72 1118.02,1619.99
             1099.99,1609.17 1104.61,1584.59 1118.02,1572.18
             1121.89,1568.62 1126.44,1566.20 1131.00,1563.70
             1149.77,1553.39 1163.42,1555.00 1184.00,1555.00
             1184.00,1555.00 1174.00,1545.91 1174.00,1545.91
             1174.00,1545.91 1166.00,1538.32 1166.00,1538.32
             1166.00,1538.32 1136.00,1517.98 1136.00,1517.98
             1136.00,1517.98 1119.00,1510.69 1119.00,1510.69
             1119.00,1510.69 1088.00,1494.55 1088.00,1494.55
             1088.00,1494.55 1068.00,1478.00 1068.00,1478.00
             1067.61,1486.44 1062.08,1507.74 1059.88,1517.00
             1056.80,1529.99 1053.85,1550.74 1054.00,1564.00
             1054.00,1564.00 1056.00,1588.00 1056.00,1588.00
             1056.09,1595.80 1055.72,1601.46 1053.25,1609.00
             1046.82,1628.62 1027.51,1647.91 1006.00,1648.00
             995.88,1648.04 993.05,1646.00 990.00,1646.12
             985.68,1646.29 986.98,1648.16 973.00,1648.00
             973.00,1648.00 961.00,1646.65 961.00,1646.65
             955.26,1647.33 945.73,1654.34 934.00,1644.67
             930.96,1642.17 928.38,1639.31 926.25,1636.00
             912.41,1614.50 929.02,1592.73 948.00,1581.87
             954.91,1577.92 959.93,1575.18 968.00,1575.00
             968.00,1575.00 969.00,1555.00 969.00,1555.00
             969.00,1555.00 970.91,1509.00 970.91,1509.00
             970.91,1509.00 973.17,1475.00 973.17,1475.00
             973.17,1475.00 976.00,1440.00 976.00,1440.00
             976.00,1440.00 977.00,1424.00 977.00,1424.00
             977.00,1424.00 978.04,1405.00 978.04,1405.00
             978.04,1405.00 978.04,1393.00 978.04,1393.00
             978.04,1393.00 979.00,1381.00 979.00,1381.00
             979.00,1381.00 980.00,1361.00 980.00,1361.00
             980.00,1361.00 981.00,1332.00 981.00,1332.00
             981.00,1332.00 982.00,1317.00 982.00,1317.00
             982.00,1317.00 984.00,1274.00 984.00,1274.00
             984.00,1274.00 985.00,1261.00 985.00,1261.00
             985.00,1261.00 986.00,1234.00 986.00,1234.00
             986.00,1234.00 987.00,1218.00 987.00,1218.00
             987.00,1218.00 988.00,1197.00 988.00,1197.00
             988.00,1197.00 989.00,1168.00 989.00,1168.00
             989.00,1168.00 989.96,1158.00 989.96,1158.00
             989.96,1158.00 989.96,1146.00 989.96,1146.00
             989.96,1146.00 991.00,1133.00 991.00,1133.00
             991.00,1133.00 993.00,1091.00 993.00,1091.00
             993.00,1091.00 993.80,1076.00 993.80,1076.00
             994.02,1073.59 994.11,1069.22 993.80,1067.00
             993.80,1067.00 981.78,1042.00 981.78,1042.00
             975.66,1029.04 969.54,1012.86 965.88,999.00
             959.97,976.60 956.50,954.06 954.91,931.00
             954.91,931.00 954.00,919.00 954.00,919.00
             954.00,919.00 954.00,874.00 954.00,874.00
             954.00,874.00 954.91,862.00 954.91,862.00
             954.91,862.00 961.41,807.00 961.41,807.00
             961.41,807.00 965.00,787.00 965.00,787.00
             965.50,784.62 966.81,780.23 966.23,778.00
             965.46,775.05 959.34,769.22 957.04,766.00
             957.04,766.00 940.01,739.00 940.01,739.00
             940.01,739.00 919.69,702.00 919.69,702.00
             919.69,702.00 887.25,641.00 887.25,641.00
             848.17,563.37 822.08,484.31 810.72,398.00
             810.72,398.00 805.91,353.00 805.91,353.00
             805.91,353.00 805.00,343.00 805.00,343.00
             805.00,343.00 804.00,324.00 804.00,324.00
             803.99,317.30 803.92,296.66 802.62,291.00
             802.62,291.00 791.06,264.00 791.06,264.00
             791.06,264.00 774.42,225.00 774.42,225.00
             774.42,225.00 762.10,197.00 762.10,197.00
             762.10,197.00 753.06,184.00 753.06,184.00
             744.73,170.59 749.02,168.13 744.01,161.04
             744.01,161.04 718.21,136.00 718.21,136.00
             708.84,124.94 709.64,110.13 724.00,104.00
             722.43,97.11 719.19,91.11 719.01,84.00
             718.72,72.05 726.01,58.02 739.00,56.21
             742.93,55.67 746.28,57.03 750.00,58.00 Z
           M 971.00,1572.00
           C 971.00,1572.00 970.00,1572.00 970.00,1572.00
             970.00,1572.00 971.00,1573.00 971.00,1573.00
             971.00,1573.00 971.00,1572.00 971.00,1572.00 Z" />
  <path id="Selection #1"
        fill="none" stroke="black" stroke-width="1"
        d="M 0.00,0.00
           C 0.00,0.00 572.00,0.00 572.00,0.00
             572.00,0.00 572.00,139.00 572.00,139.00
             572.00,139.00 0.00,139.00 0.00,139.00
             0.00,139.00 0.00,0.00 0.00,0.00 Z
           M 663.00,0.00
           C 663.00,0.00 800.00,0.00 800.00,0.00
             800.00,0.00 800.00,139.00 800.00,139.00
             800.00,139.00 663.00,139.00 663.00,139.00
             663.00,139.00 663.00,0.00 663.00,0.00 Z
           M 0.00,365.00
           C 0.00,365.00 0.00,260.00 0.00,260.00
             0.00,260.00 0.00,236.00 0.00,236.00
             0.01,234.18 -0.15,231.08 1.02,229.60
             2.59,227.62 6.70,228.00 9.00,228.00
             9.00,228.00 558.00,228.00 558.00,228.00
             558.00,228.00 744.00,228.00 744.00,228.00
             744.00,228.00 794.00,228.00 794.00,228.00
             801.49,228.14 800.99,230.26 801.00,237.00
             801.00,237.00 801.00,392.00 801.00,392.00
             801.00,392.00 801.00,445.00 801.00,445.00
             801.00,445.00 799.16,467.00 799.16,467.00
             794.56,510.07 779.25,553.21 748.91,584.99
             743.32,590.85 732.85,599.10 726.00,603.67
             673.89,638.42 620.26,633.00 561.00,633.00
             516.21,633.00 483.86,634.90 441.00,617.40
             414.06,606.40 391.44,587.53 374.58,564.00
             370.02,557.64 362.09,545.32 360.00,538.00
             360.00,538.00 325.00,549.33 325.00,549.33
             325.00,549.33 269.00,567.67 269.00,567.67
             269.00,567.67 156.00,604.67 156.00,604.67
             156.00,604.67 88.00,627.02 88.00,627.02
             88.00,627.02 23.00,648.42 23.00,648.42
             23.00,648.42 0.00,655.00 0.00,655.00
             0.00,655.00 0.00,506.00 0.00,506.00
             0.00,506.00 32.00,497.02 32.00,497.02
             32.00,497.02 75.00,484.42 75.00,484.42
             75.00,484.42 247.00,434.28 247.00,434.28
             247.00,434.28 309.00,416.14 309.00,416.14
             309.00,416.14 338.00,408.00 338.00,408.00
             338.00,408.00 338.00,365.00 338.00,365.00
             338.00,365.00 0.00,365.00 0.00,365.00 Z
           M 668.00,365.00
           C 668.00,365.00 471.00,365.00 471.00,365.00
             471.00,365.00 471.00,434.00 471.00,434.00
             471.01,440.79 472.12,449.45 473.92,456.00
             475.18,460.59 477.12,465.00 479.70,469.00
             495.47,493.48 521.87,490.00 547.00,490.00
             547.00,490.00 581.00,490.00 581.00,490.00
             603.25,490.00 628.91,493.03 648.00,479.56
             662.67,469.21 667.92,451.22 668.00,434.00
             668.00,434.00 668.00,365.00 668.00,365.00 Z
           M 1.60,737.02
           C 5.94,735.18 14.07,736.00 19.00,736.00
             19.00,736.00 55.00,736.00 55.00,736.00
             55.00,736.00 180.00,736.00 180.00,736.00
             180.00,736.00 617.00,736.00 617.00,736.00
             617.00,736.00 758.00,736.00 758.00,736.00
             758.00,736.00 788.00,736.00 788.00,736.00
             790.54,736.00 797.55,735.56 799.40,737.02
             801.38,738.59 801.00,742.70 801.00,745.00
             801.00,745.00 801.00,879.00 801.00,879.00
             801.00,879.00 801.00,930.00 801.00,930.00
             801.00,930.00 801.00,960.00 801.00,960.00
             800.96,985.74 792.47,1020.12 780.74,1043.00
             775.12,1053.98 767.58,1064.65 759.57,1074.00
             751.96,1082.89 740.76,1092.14 731.00,1098.65
             717.84,1107.42 703.11,1113.73 688.00,1118.28
             672.18,1123.04 648.47,1126.97 632.00,1127.00
             632.00,1127.00 169.00,1127.00 169.00,1127.00
             169.00,1127.00 157.00,1126.09 157.00,1126.09
             116.63,1123.14 76.16,1109.08 47.04,1079.96
             19.31,1052.24 4.01,1010.62 0.92,972.00
             0.92,972.00 0.00,962.00 0.00,962.00
             0.00,962.00 0.00,797.00 0.00,797.00
             0.00,797.00 0.00,754.00 0.00,754.00
             0.00,749.15 -1.20,740.93 1.60,737.02 Z
           M 668.00,876.00
           C 668.00,876.00 133.00,876.00 133.00,876.00
             133.00,876.00 133.00,915.00 133.00,915.00
             133.00,938.89 132.24,961.36 155.00,976.14
             160.62,979.78 163.68,981.02 170.00,982.98
             176.70,985.05 183.00,985.99 190.00,986.00
             190.00,986.00 515.00,986.00 515.00,986.00
             515.00,986.00 613.00,986.00 613.00,986.00
             629.26,985.81 648.52,978.53 658.21,965.00
             665.51,954.81 667.98,941.30 668.00,929.00
             668.00,929.00 668.00,876.00 668.00,876.00 Z
           M 0.00,1151.00
           C 6.88,1151.58 14.17,1154.06 21.00,1155.58
             21.00,1155.58 65.00,1166.12 65.00,1166.12
             65.00,1166.12 195.00,1197.12 195.00,1197.12
             195.00,1197.12 488.00,1266.88 488.00,1266.88
             488.00,1266.88 576.00,1287.88 576.00,1287.88
             576.00,1287.88 614.00,1297.00 614.00,1297.00
             614.00,1297.00 677.00,1312.12 677.00,1312.12
             677.00,1312.12 758.00,1331.37 758.00,1331.37
             758.00,1331.37 789.00,1338.79 789.00,1338.79
             799.78,1341.12 800.86,1340.91 801.00,1348.00
             801.00,1348.00 801.00,1432.00 801.00,1432.00
             801.00,1433.97 801.26,1437.69 800.01,1439.27
             798.58,1441.07 791.46,1442.26 789.00,1442.87
             789.00,1442.87 758.00,1450.37 758.00,1450.37
             758.00,1450.37 614.00,1484.63 614.00,1484.63
             614.00,1484.63 466.00,1519.88 466.00,1519.88
             466.00,1519.88 189.00,1586.12 189.00,1586.12
             189.00,1586.12 55.00,1618.12 55.00,1618.12
             55.00,1618.12 1.00,1631.00 1.00,1631.00
             -0.92,1624.24 0.00,1596.87 0.00,1588.00
             0.00,1588.00 0.00,1501.00 0.00,1501.00
             0.00,1498.96 -0.24,1495.23 1.02,1493.58
             2.48,1491.67 6.74,1491.30 9.00,1490.92
             9.00,1490.92 28.00,1487.20 28.00,1487.20
             28.00,1487.20 101.00,1472.80 101.00,1472.80
             105.35,1471.93 120.84,1469.95 122.98,1466.69
             124.21,1464.81 124.00,1461.21 124.00,1459.00
             124.00,1459.00 124.00,1313.00 124.00,1313.00
             124.00,1313.00 81.00,1305.00 81.00,1305.00
             81.00,1305.00 0.00,1289.00 0.00,1289.00
             0.00,1289.00 0.00,1151.00 0.00,1151.00 Z
           M 515.00,1390.00
           C 515.00,1390.00 488.00,1385.00 488.00,1385.00
             488.00,1385.00 444.00,1376.40 444.00,1376.40
             444.00,1376.40 316.00,1351.20 316.00,1351.20
             316.00,1351.20 276.00,1343.20 276.00,1343.20
             276.00,1343.20 254.00,1339.00 254.00,1339.00
             254.00,1339.00 254.00,1443.00 254.00,1443.00
             254.00,1443.00 278.00,1438.00 278.00,1438.00
             278.00,1438.00 326.00,1428.60 326.00,1428.60
             326.00,1428.60 392.00,1415.60 392.00,1415.60
             392.00,1415.60 435.00,1407.08 435.00,1407.08
             435.00,1407.08 491.00,1396.00 491.00,1396.00
             496.90,1394.82 510.77,1393.24 515.00,1390.00 Z" />
</svg>
